<svg xmlns="http://www.w3.org/2000/svg" version="1.1" xmlns:xlink="http://www.w3.org/1999/xlink" xmlns:svgjs="http://svgjs.dev/svgjs" width="2000" height="454" viewBox="0 0 2000 454"><g transform="matrix(1,0,0,1,-1.2121212121212466,-1.090292603017872)"><svg viewBox="0 0 396 90" data-background-color="#6750a4" preserveAspectRatio="xMidYMid meet" height="454" width="2000" xmlns="http://www.w3.org/2000/svg" xmlns:xlink="http://www.w3.org/1999/xlink"><g id="tight-bounds" transform="matrix(1,0,0,1,0.2400000000000091,0.21613730015772603)"><svg viewBox="0 0 395.52 89.56772539968455" height="89.56772539968455" width="395.52"><g><svg viewBox="0 0 538.2570461443095 121.89133116782678" height="89.56772539968455" width="395.52"><g transform="matrix(1,0,0,1,142.7370461443095,16.84605228151586)"><svg viewBox="0 0 395.52 88.19922660479506" height="88.19922660479506" width="395.52"><g id="textblocktransform"><svg viewBox="0 0 395.52 88.19922660479506" height="88.19922660479506" width="395.52" id="textblock"><g><svg viewBox="0 0 395.52 88.19922660479506" height="88.19922660479506" width="395.52"><g transform="matrix(1,0,0,1,0,0)"><svg width="395.52" viewBox="2.7 -33.25 193.93 43.25" height="88.19922660479506" data-palette-color="#ffffff"><path d="M11.33-15.73Q6.85-16.8 4.78-18.88 2.7-20.95 2.7-24.9 2.7-28.85 5.43-31.05 8.15-33.25 12.45-33.25 16.75-33.25 21.2-31.7L21.2-31.7 20.5-29.15Q16.35-30.65 12.88-30.65 9.4-30.65 7.55-29.18 5.7-27.7 5.7-24.9 5.7-22.1 7.2-20.65 8.7-19.2 13.18-18.03 17.65-16.85 19.65-14.93 21.65-13 21.65-8.72 21.65-4.45 18.78-1.98 15.9 0.5 11.35 0.5L11.35 0.5Q7.95 0.5 2.75-0.95L2.75-0.95 3.4-3.5Q8.5-2.1 11.6-2.1 14.7-2.1 16.7-3.83 18.7-5.55 18.7-8.65 18.7-11.75 17.25-13.2 15.8-14.65 11.33-15.73ZM45.65-16L42.95-16 42.95-20.95Q40.5-21.5 39.05-21.5L39.05-21.5Q35.45-21.5 33.67-18.95 31.9-16.4 31.9-11.9 31.9-7.4 33.7-4.78 35.5-2.15 39.05-2.15L39.05-2.15Q41.3-2.15 45.3-3.55L45.3-3.55 46.05-1.05Q42.1 0.45 39.1 0.45L39.1 0.45Q34.2 0.45 31.62-2.83 29.05-6.1 29.05-11.95 29.05-17.8 31.6-20.93 34.15-24.05 39.1-24.05L39.1-24.05Q42.4-24.05 45.65-23L45.65-23 45.65-16ZM61.95-21.25L56.15-21.25 56.15-23.75 64.59-23.75 64.59-2.5 70.4-2.5 70.4 0 55.75 0 55.75-2.5 61.95-2.5 61.95-21.25ZM63.05-28.55Q62.15-28.55 61.52-29.18 60.9-29.8 60.9-30.78 60.9-31.75 61.52-32.33 62.15-32.9 63.05-32.9 63.95-32.9 64.52-32.35 65.09-31.8 65.09-30.8 65.09-29.8 64.52-29.18 63.95-28.55 63.05-28.55ZM80.09 0L77.39 0 77.39-32.75 80.04-32.75 87.09-14.4 87.84-14.4 94.89-32.75 97.54-32.75 97.54 0 94.84 0 94.84-25.4 94.64-25.4 89.39-11.85 85.54-11.85 80.29-25.45 80.09-25.45 80.09 0ZM103.34-11.85Q103.34-17.6 105.72-20.83 108.09-24.05 112.64-24.05 117.19-24.05 119.42-21.05 121.64-18.05 121.64-13.05L121.64-13.05 121.49-10.55 106.19-10.55Q106.44-6.8 108.19-4.48 109.94-2.15 113.02-2.15 116.09-2.15 120.24-3.6L120.24-3.6 120.99-1.1Q116.94 0.45 113.39 0.45L113.39 0.45Q108.49 0.45 105.92-2.83 103.34-6.1 103.34-11.85ZM112.84-21.5L112.84-21.5Q106.54-21.5 106.19-13.05L106.19-13.05 118.79-13.05Q118.79-21.5 112.84-21.5ZM134.24-21.25L129.54-21.25 129.54-23.75 136.89-23.75 136.99-20.85Q138.59-21.85 141.49-22.85 144.39-23.85 146.59-24.05L146.59-24.05 146.59-21.1Q144.54-20.95 141.51-20.1 138.49-19.25 136.99-18.35L136.99-18.35 136.99-2.5 144.99-2.5 144.99 0 129.54 0 129.54-2.5 134.24-2.5 134.24-21.25ZM171.39-23.75L171.39-5.75 171.54 1.15Q171.54 5.6 168.86 7.8 166.19 10 162.24 10 158.29 10 153.24 8L153.24 8 154.14 5.5Q159.09 7.4 162.01 7.4 164.94 7.4 166.91 5.88 168.89 4.35 168.89 1.2L168.89 1.2Q168.89 0.8 168.81-0.58 168.74-1.95 168.74-2.6L168.74-2.6Q165.09-0.05 161.94-0.05L161.94-0.05Q157.44-0.05 155.01-3.13 152.59-6.2 152.59-11.88 152.59-17.55 155.29-20.8 157.99-24.05 162.79-24.05L162.79-24.05Q165.44-24.05 168.74-22.3L168.74-22.3 168.84-23.75 171.39-23.75ZM155.44-11.93Q155.44-7.55 157.14-5.1 158.84-2.65 162.09-2.65 165.34-2.65 168.74-5.5L168.74-5.5 168.74-19.5Q165.64-21.45 162.89-21.45L162.89-21.45Q159.34-21.45 157.39-18.88 155.44-16.3 155.44-11.93ZM178.33-11.85Q178.33-17.6 180.71-20.83 183.08-24.05 187.63-24.05 192.18-24.05 194.41-21.05 196.63-18.05 196.63-13.05L196.63-13.05 196.48-10.55 181.18-10.55Q181.43-6.8 183.18-4.48 184.93-2.15 188.01-2.15 191.08-2.15 195.23-3.6L195.23-3.6 195.98-1.1Q191.93 0.45 188.38 0.45L188.38 0.45Q183.48 0.45 180.91-2.83 178.33-6.1 178.33-11.85ZM187.83-21.5L187.83-21.5Q181.53-21.5 181.18-13.05L181.18-13.05 193.78-13.05Q193.78-21.5 187.83-21.5Z" opacity="1" transform="matrix(1,0,0,1,0,0)" fill="#ffffff" class="wordmark-text-0" data-fill-palette-color="primary" id="text-0"></path></svg></g></svg></g></svg></g></svg></g><g><svg viewBox="0 0 121.9153255243559 121.89133116782678" height="121.89133116782678" width="121.9153255243559"><g><svg xmlns="http://www.w3.org/2000/svg" xmlns:xlink="http://www.w3.org/1999/xlink" version="1.1" x="0" y="0" viewBox="2 2 508.1000000000001 508" enable-background="new 0 0 512 512" xml:space="preserve" height="121.89133116782678" width="121.9153255243559" class="icon-icon-0" data-fill-palette-color="accent" id="icon-0"><g fill="#ffffff" data-fill-palette-color="accent"><path d="M142.6 388.5H58.4C27.3 388.5 2 413.8 2 444.9v51c0 7.8 6.3 14.1 14.1 14.1h168.8c7.8 0 14.1-6.3 14.1-14.1v-51C199 413.8 173.7 388.5 142.6 388.5zM170.8 481.8H30.2v-36.9c0-15.6 12.7-28.2 28.2-28.2h84.1c15.6 0 28.2 12.7 28.2 28.2V481.8z" fill="#ffffff" data-fill-palette-color="accent"></path><path d="M100.5 370.7c28.7 0 52-23.3 52-52 0-28.7-23.3-52-52-52-28.7 0-52 23.3-52 52C48.5 347.4 71.8 370.7 100.5 370.7zM100.5 294.9c13.1 0 23.8 10.7 23.8 23.8 0 13.1-10.7 23.8-23.8 23.8-13.1 0-23.8-10.7-23.8-23.8C76.7 305.6 87.4 294.9 100.5 294.9z" fill="#ffffff" data-fill-palette-color="accent"></path><path d="M453.6 388.5h-84.1c-31.1 0-56.4 25.3-56.4 56.4v51c0 7.8 6.3 14.1 14.1 14.1h168.8c7.8 0 14.1-6.3 14.1-14.1v-51C510 413.8 484.7 388.5 453.6 388.5zM481.8 481.8H341.2v-36.9c0-15.6 12.7-28.2 28.2-28.2h84.1c15.6 0 28.2 12.7 28.2 28.2V481.8z" fill="#ffffff" data-fill-palette-color="accent"></path><path d="M411.5 370.7c28.7 0 52-23.3 52-52 0-28.7-23.3-52-52-52s-52 23.3-52 52C359.5 347.4 382.8 370.7 411.5 370.7zM411.5 294.9c13.1 0 23.8 10.7 23.8 23.8 0 13.1-10.7 23.8-23.8 23.8-13.1 0-23.8-10.7-23.8-23.8C387.7 305.6 398.4 294.9 411.5 294.9z" fill="#ffffff" data-fill-palette-color="accent"></path><path d="M256 106c28.7 0 52-23.3 52-52S284.7 2 256 2c-28.7 0-52 23.3-52 52S227.3 106 256 106zM256 30.2c13.1 0 23.8 10.7 23.8 23.8S269.1 77.8 256 77.8c-13.1 0-23.8-10.7-23.8-23.8S242.9 30.2 256 30.2z" fill="#ffffff" data-fill-palette-color="accent"></path><path d="M326.3 367.5c5.5-5.5 5.5-14.4 0-20l-56.2-56.2v-46h70.3c7.8 0 14.1-6.3 14.1-14.1v-51c0-31.1-25.3-56.4-56.4-56.4h-84.1c-31.1 0-56.4 25.3-56.4 56.4v51c0 7.8 6.3 14.1 14.1 14.1h70.3v46l-56.2 56.2c-5.5 5.5-5.5 14.4 0 20 5.5 5.5 14.4 5.5 20 0l50.4-50.4 50.4 50.4c2.8 2.8 6.4 4.1 10 4.1C320 371.6 323.6 370.3 326.3 367.5zM185.7 180.2c0-15.6 12.7-28.2 28.2-28.2h84.1c15.6 0 28.2 12.7 28.2 28.2v36.9H185.7V180.2z" fill="#ffffff" data-fill-palette-color="accent"></path></g></svg></g></svg></g></svg></g><defs></defs></svg><rect width="395.52" height="89.56772539968455" fill="none" stroke="none" visibility="hidden"></rect></g></svg></g></svg>